<svg id="Ebene_1" data-name="Ebene 1" xmlns="http://www.w3.org/2000/svg" viewBox="0 0 85.04 85.04"><defs><style>.cls-1{fill:#be9132;}.cls-2{fill:#fff;}.cls-3{fill:#000391;}</style></defs><title>2019_Ritter Sport_Logo RGB</title><rect class="cls-1" width="85.04" height="85.04"/><rect class="cls-2" x="3.69" y="3.69" width="77.67" height="77.67"/><path class="cls-3" d="M73,63.47H69V51.67H65.78V48.35H76.21v3.32H73ZM57.15,55.13h.39c1.28,0,2.73-.24,2.73-1.89s-1.45-1.89-2.73-1.89h-.39Zm8.65,8.34H60.91L57.2,57.65h-.05v5.82H53.22V48.35H59.1c3,0,5.26,1.42,5.26,4.65a4.06,4.06,0,0,1-3.31,4.27ZM38.73,55.65a4.28,4.28,0,1,0,8.55,0,4.28,4.28,0,0,0-8.55,0m12.64,0A8,8,0,0,1,43,64a8,8,0,0,1-8.36-8.34c0-4.58,4-7.79,8.36-7.79s8.37,3.21,8.37,7.79m-25.49-.34h.66c1.42,0,2.83,0,2.83-1.85s-1.31-1.93-2.83-1.93h-.66ZM22,48.35h6c3.25,0,5.5,1.5,5.5,5s-1.93,5.14-5.36,5.14H25.88v5H22Zm-4.26,3.89a4.18,4.18,0,0,0-2.61-1c-.72,0-1.69.42-1.69,1.27s1.07,1.22,1.75,1.44l1,.3c2.11.63,3.73,1.69,3.73,4.14a5.16,5.16,0,0,1-1.56,4.07A6.66,6.66,0,0,1,14,63.87,9.37,9.37,0,0,1,8.7,62.15L10.39,59a5.38,5.38,0,0,0,3.48,1.56c.93,0,1.91-.46,1.91-1.52s-1.54-1.49-2.39-1.73C10.93,56.59,9.3,56,9.3,53A4.9,4.9,0,0,1,14.52,48a10.35,10.35,0,0,1,4.73,1.24ZM57.05,23.45a5.82,5.82,0,0,1,2.17-3.72c.22-.15,1.52-.64,1.49,1.09a2.7,2.7,0,0,1-1,2.47c-.65.48-2.45,1.63-2.45,1.63s-.18,0-.25-.2a3.39,3.39,0,0,1,0-1.27m-37.9,2.2c0,.47-.08.64.39.52a7.18,7.18,0,0,0,2.68-1.25,6.92,6.92,0,0,0,2.36-3.54,5.54,5.54,0,0,0-.07-2.69,3.38,3.38,0,0,0-1.43-2,1.25,1.25,0,0,0-1.64,0,4.56,4.56,0,0,0-1.85,2.62,10.62,10.62,0,0,0-.41,2.89c-.05,1,0,3,0,3.38M54.86,37.31s.41.13.74.21,1.36.26,2.7.48a54.51,54.51,0,0,0,5.89.62,10.18,10.18,0,0,0,4.61-.8c1.34-.79,2.07-2.46,1.58-3.38-.62-1.1-1.66-1.19-3.08-1.29a15.83,15.83,0,0,0-5.39,1,45.79,45.79,0,0,0-6.28,2.78c-.41.2-.57.26-.77.37M35.79,20.14c.23-.1.74-.36.73.31s-.48,3.79-3.13,5c-.28.08-1,.19-.69-.46s1.08-2.6.49-3.28c-.17-.27-.32-.51.2-.71.37-.11,2.4-.82,2.4-.82M30.6,27.71c-.47.11-.32.55-.21.58a8.38,8.38,0,0,0,.83.12c.37.06.38.12.37.43,0,0,0,5.94,0,6.18a2.49,2.49,0,0,0,.5,1.39,2.94,2.94,0,0,0,3,.73,5.33,5.33,0,0,0,2.2-2.43c.39-.78-.13-.79-.36-.75s-.56.36-1,.51-.36-.44-.4-.66,0-7.2,0-7.2c0-.74-.45-.5-.75-.4,0,0-3.89,1.34-4.21,1.5m12.72-8.16v3.89c0,.11,0,.24.09.22a10.88,10.88,0,0,0,1.28-.11c.36-.07.4.79-.07,1a7.21,7.21,0,0,1-1.2.51c-.1,0-.09.12-.08.39V32c0,.21.1.53.44.37s.81-.37,1-.46.69-.09.41.58A4.84,4.84,0,0,1,43.07,35a2.78,2.78,0,0,1-2.75-.27,3,3,0,0,1-1-1.68c0-.37,0-6.35,0-6.49s.11-.36-.36-.37-1.45,0-.87-.53c2.14-1.68,3.6-3,4.42-6.47.08-.64.74-.79.74-.1,0,.27,0,.37,0,.47m8.13-2.81c0-.68-.66-.54-.74.11-.82,3.44-2.27,4.79-4.42,6.47-.58.52.41.55.87.52s.34.2.37.37,0,6.13,0,6.5a3,3,0,0,0,1,1.68,2.75,2.75,0,0,0,2.75.26,4.83,4.83,0,0,0,2.09-2.49c.27-.67-.22-.66-.41-.58s-.6.3-1,.46-.42-.16-.44-.37V23.15c0-.28,0-.36.08-.39a8.19,8.19,0,0,0,1.2-.52c.46-.24.43-1.09.07-1a10.88,10.88,0,0,1-1.28.11c-.12,0-.08-.11-.09-.21V17.22c0-.11,0-.2,0-.48m18.14,1c.12-.16,1.09-1.24,1.15-1.29s.16-.3.59,0c.2.16,1.14.83,1.24.9a1.87,1.87,0,0,0,1,.3,1.68,1.68,0,0,0,.81-.4c.2-.19.77-.44.43.37a6,6,0,0,1-2.11,2.22,1.71,1.71,0,0,1-1.95.09c-.46-.25-.68-.41-.81-.49s-.5-.36-.5.08v5c0,.18-.06.83.46.57s.74-.34,1-.46.61-.06.32.69a4.44,4.44,0,0,1-2.13,2.41,2.55,2.55,0,0,1-2.8-.46,3,3,0,0,1-.74-1.52c0-.45-.06-6.56-.06-6.56s0-.32-.27-.32-1.23.12-.74-.37a26.57,26.57,0,0,1,2.12-1.8,1.29,1.29,0,0,1,1.58.17c.46.4.54.43.87.75s.33.23.46.09M57.82,26c.93-.6,4.86-3.09,5.22-3.37a1.66,1.66,0,0,0,.56-2.44C62.41,18,60.71,18,58.94,18.5c-2.84.85-4.3,3.78-4.76,5.38a5,5,0,0,0,1,4.85c1.12,1.36,2.85,2.3,4.34,1.73a7.25,7.25,0,0,0,3.19-2.84,1.16,1.16,0,0,0,.17-.74c0-.45-.33-.54-1,.07-2.14,1.73-3.4.2-3.72-.1a3.32,3.32,0,0,1-.41-.49.21.21,0,0,1,.09-.32M20.22,16.3c.45-.19.33-.33,0-.39-4.26-.47-9,2.15-9.1,5a2.21,2.21,0,0,0,.33,1.49c.11.14.15.26.45.14s1.33-.36,1.52.56a1.53,1.53,0,0,1-.62,1.68,2.31,2.31,0,0,1-1.68.51,2.59,2.59,0,0,1-1.7-1.56,4.87,4.87,0,0,1,.27-3.39c.58-1.15,2.76-4.95,9.58-6,2.45-.2,6.8-.37,8.84,2.76a6.12,6.12,0,0,1-1.27,7.5,11.84,11.84,0,0,1-4.53,2.48c-.27.11-.42.13.32.45a11.85,11.85,0,0,1,3.53,3.36,33.26,33.26,0,0,1,2.72,5,15.21,15.21,0,0,0,3.64,5.17,5.42,5.42,0,0,0,3.59,1.48,15.61,15.61,0,0,0,5.79-.4,29.56,29.56,0,0,0,5.54-2.22c1.58-.76,3.06-1.57,3.78-2a14.6,14.6,0,0,0-4.94.05,24.93,24.93,0,0,0-3.29,1.13c-.79.26-1-.31-.45-.6a21.06,21.06,0,0,1,1.92-.89,12.94,12.94,0,0,1,4.8-.93,29.67,29.67,0,0,1,3.72.19c.74-.42,1.74-1,3-1.58S60.7,33,63,32.19c1.36-.48,4.69-1.73,7.05-1.78s4.88.66,5.74,2.68-.8,4.13-2,4.93a11.17,11.17,0,0,1-5.75,2.18,29.37,29.37,0,0,1-8.11-.56c-1.74-.31-5.82-1.21-6.59-1.35-.51.26-4.91,3-6.68,4a54.3,54.3,0,0,1-6.08,2.62c-1.85.7-6.18,1.53-9.43.17-4.17-1.48-6.77-5.65-8-9.15-1.51-3.66-1.76-7.41-3.67-7.93-.28-.06-.25,0-.24.32V38a2.32,2.32,0,0,0,.63,1.77,4.33,4.33,0,0,0,.65.46c.54.24.57,1.12-.55,1a14,14,0,0,0-4,.27,32.79,32.79,0,0,0-4.05,1.72c-1,.56-2.54.75-2.16-.1.3-.63,1.45-.73,2.52-1.68a3.76,3.76,0,0,0,1.78-2.83c.12-.92.29-2.87.38-3.62,0-.54.27-7.89.32-8.73s.1-4.69,1.55-6.78a8.85,8.85,0,0,1,3.91-3.2" transform="translate(0 0)"/></svg>